<svg width="1065" height="1065" viewBox="0 0 1065 1065" fill="none" xmlns="http://www.w3.org/2000/svg">
<path d="M220.559 60H60.4407C49.1516 60 40 69.1613 40 80.4624V983.538C40 994.839 49.1516 1004 60.4407 1004H220.559C231.848 1004 241 994.839 241 983.538V80.4624C241 69.1613 231.848 60 220.559 60Z" fill="white"/>
<path d="M1025.53 614.277H965.473C954.166 614.277 945 623.435 945 634.732V983.822C945 995.119 954.166 1004.28 965.473 1004.28H1025.53C1036.83 1004.28 1046 995.119 1046 983.822V634.732C1046 623.435 1036.83 614.277 1025.53 614.277Z" fill="white"/>
<path d="M520.551 803.004H60.449C49.1553 803.004 40 812.156 40 823.445V983.563C40 994.852 49.1553 1004 60.449 1004H520.551C531.845 1004 541 994.852 541 983.563V823.445C541 812.156 531.845 803.004 520.551 803.004Z" fill="white"/>
<path d="M520.763 412.978H360.644C349.355 412.978 340.204 422.149 340.204 433.462V984.493C340.204 995.806 349.355 1004.98 360.644 1004.98H520.763C532.052 1004.98 541.204 995.806 541.204 984.493V433.462C541.204 422.149 532.052 412.978 520.763 412.978Z" fill="#F7F7F7"/>
<path d="M520.763 160.978H360.644C349.355 160.978 340.204 170.144 340.204 181.451V342.505C340.204 353.812 349.355 362.978 360.644 362.978H520.763C532.052 362.978 541.204 353.812 541.204 342.505V181.451C541.204 170.144 532.052 160.978 520.763 160.978Z" fill="#F7F7F7"/>
<path d="M252.424 60.277H28.5763C12.794 60.277 0 67.1742 0 75.6824V196.872C0 205.38 12.794 212.277 28.5763 212.277H252.424C268.206 212.277 281 205.38 281 196.872V75.6824C281 67.1742 268.206 60.277 252.424 60.277Z" fill="#FAFAFA"/>
<path d="M938.339 652.277H1050.66C1058.58 652.277 1065 648.828 1065 644.574V583.98C1065 579.726 1058.58 576.277 1050.66 576.277H938.339C930.42 576.277 924 579.726 924 583.98V644.574C924 648.828 930.42 652.277 938.339 652.277Z" fill="#FAFAFA"/>
<path d="M873.527 413.277H813.473C802.166 413.277 793 422.414 793 433.685V492.869C793 504.14 802.166 513.277 813.473 513.277H873.527C884.834 513.277 894 504.14 894 492.869V433.685C894 422.414 884.834 413.277 873.527 413.277Z" fill="#F7F7F7"/>
<path d="M1004.14 903.277H833.865C811.296 903.277 793 921.609 793 944.223V963.331C793 985.945 811.296 1004.28 833.865 1004.28H1004.14C1026.7 1004.28 1045 985.945 1045 963.331V944.223C1045 921.609 1026.7 903.277 1004.14 903.277Z" fill="white"/>
<path d="M873.527 714.277H813.473C802.166 714.277 793 723.442 793 734.748V983.806C793 995.112 802.166 1004.28 813.473 1004.28H873.527C884.834 1004.28 894 995.112 894 983.806V734.748C894 723.442 884.834 714.277 873.527 714.277Z" fill="#F7F7F7"/>
<path d="M592 583.75C592 572.443 601.156 563.277 612.451 563.277H873.549C884.845 563.277 894 572.443 894 583.75V643.804C894 655.111 884.845 664.277 873.549 664.277H612.451C601.156 664.277 592 655.111 592 643.804V583.75Z" fill="#B8B8B8"/>
<path d="M591.204 182.277C591.204 170.679 600.606 161.277 612.204 161.277H772.204C783.802 161.277 793.204 170.679 793.204 182.277V241.277C793.204 252.875 802.606 262.277 814.204 262.277H873.204C884.802 262.277 894.204 271.679 894.204 283.277V342.277C894.204 353.875 884.802 363.277 873.204 363.277H612.204C600.606 363.277 591.204 353.875 591.204 342.277V182.277Z" fill="#B8B8B8"/>
</svg>
