<svg width="1473" height="1473" viewBox="0 0 1473 1473" fill="none" xmlns="http://www.w3.org/2000/svg">
<rect width="1473" height="1473" rx="60" fill="white"/>
<path d="M414.559 294.723H254.441C243.152 294.723 234 303.884 234 315.185V1218.26C234 1229.56 243.152 1238.72 254.441 1238.72H414.559C425.848 1238.72 435 1229.56 435 1218.26V315.185C435 303.884 425.848 294.723 414.559 294.723Z" fill="#458EB8"/>
<path d="M1219.53 849H1159.47C1148.17 849 1139 858.158 1139 869.455V1218.55C1139 1229.84 1148.17 1239 1159.47 1239H1219.53C1230.83 1239 1240 1229.84 1240 1218.55V869.455C1240 858.158 1230.83 849 1219.53 849Z" fill="#458EB8"/>
<path d="M714.551 1037.73H254.449C243.155 1037.73 234 1046.88 234 1058.17V1218.29C234 1229.58 243.155 1238.73 254.449 1238.73H714.551C725.845 1238.73 735 1229.58 735 1218.29V1058.17C735 1046.88 725.845 1037.73 714.551 1037.73Z" fill="#458EB8"/>
<path d="M714.763 647.701H554.644C543.355 647.701 534.204 656.872 534.204 668.185V1219.22C534.204 1230.53 543.355 1239.7 554.644 1239.7H714.763C726.052 1239.7 735.204 1230.53 735.204 1219.22V668.185C735.204 656.872 726.052 647.701 714.763 647.701Z" fill="#005A76"/>
<path d="M714.763 395.701H554.644C543.355 395.701 534.204 404.867 534.204 416.174V577.228C534.204 588.535 543.355 597.701 554.644 597.701H714.763C726.052 597.701 735.204 588.535 735.204 577.228V416.174C735.204 404.867 726.052 395.701 714.763 395.701Z" fill="#005A76"/>
<path d="M446.424 295H222.576C206.794 295 194 301.897 194 310.405V431.595C194 440.103 206.794 447 222.576 447H446.424C462.206 447 475 440.103 475 431.595V310.405C475 301.897 462.206 295 446.424 295Z" fill="#3A81A9"/>
<path d="M1132.34 887H1244.66C1252.58 887 1259 883.551 1259 879.297V818.703C1259 814.449 1252.58 811 1244.66 811H1132.34C1124.42 811 1118 814.449 1118 818.703V879.297C1118 883.551 1124.42 887 1132.34 887Z" fill="#3A81A9"/>
<path d="M1067.53 648H1007.47C996.166 648 987 657.137 987 668.408V727.592C987 738.863 996.166 748 1007.47 748H1067.53C1078.83 748 1088 738.863 1088 727.592V668.408C1088 657.137 1078.83 648 1067.53 648Z" fill="#005A76"/>
<path d="M1198.14 1138H1027.86C1005.3 1138 987 1156.33 987 1178.95V1198.05C987 1220.67 1005.3 1239 1027.86 1239H1198.14C1220.7 1239 1239 1220.67 1239 1198.05V1178.95C1239 1156.33 1220.7 1138 1198.14 1138Z" fill="#458EB8"/>
<path d="M1067.53 949H1007.47C996.166 949 987 958.165 987 969.471V1218.53C987 1229.84 996.166 1239 1007.47 1239H1067.53C1078.83 1239 1088 1229.84 1088 1218.53V969.471C1088 958.165 1078.83 949 1067.53 949Z" fill="#005A76"/>
<path d="M786 818.473C786 807.166 795.156 798 806.451 798H1067.55C1078.84 798 1088 807.166 1088 818.473V878.527C1088 889.834 1078.84 899 1067.55 899H806.451C795.156 899 786 889.834 786 878.527V818.473Z" fill="#003647"/>
<path d="M785.204 417C785.204 405.402 794.606 396 806.204 396H966.204C977.802 396 987.204 405.402 987.204 417V476C987.204 487.598 996.606 497 1008.2 497H1067.2C1078.8 497 1088.2 506.402 1088.2 518V577C1088.2 588.598 1078.8 598 1067.2 598H806.204C794.606 598 785.204 588.598 785.204 577V417Z" fill="#003647"/>
</svg>
